<svg xmlns="http://www.w3.org/2000/svg" width="24" height="24" viewBox="0 0 24 24">
  <defs>
    <linearGradient id="fogLayerGradient" x1="0%" y1="0%" x2="0%" y2="100%">
      <stop offset="0%" style="stop-color:#ffffff;stop-opacity:0.6"/>
      <stop offset="100%" style="stop-color:#ffffff;stop-opacity:0.3"/>
    </linearGradient>
  </defs>
  <!-- Layered fog representation -->
  <path d="M 4 8 Q 6 6, 8 8 Q 10 6, 12 8 Q 14 6, 16 8 Q 18 6, 20 8"
        fill="none" stroke="url(#fogLayerGradient)" stroke-width="2" stroke-linecap="round"/>
  <path d="M 3 12 Q 5 10, 7 12 Q 9 10, 11 12 Q 13 10, 15 12 Q 17 10, 19 12 Q 21 10, 23 12"
        fill="none" stroke="url(#fogLayerGradient)" stroke-width="2" stroke-linecap="round"/>
  <path d="M 4 16 Q 6 14, 8 16 Q 10 14, 12 16 Q 14 14, 16 16 Q 18 14, 20 16"
        fill="none" stroke="url(#fogLayerGradient)" stroke-width="2" stroke-linecap="round"/>
</svg>
